<svg xmlns="http://www.w3.org/2000/svg" xml:space="preserve" width="747" height="262" overflow="hidden"><defs><clipPath id="a"><path d="M1471 572h747v262h-747z"/></clipPath></defs><g clip-path="url(#a)" transform="translate(-1471 -572)"><path fill="#327137" fill-rule="evenodd" d="M1863.32 666.417c-13.16 12.724-26.97 27.203-42.85 41.992-34.32 173.194 93.22 41.613 42.85-41.992m272.64-31.08a25.03 25.03 0 0 1 18.29 5.88c31.64 36.455 117.33 154.933 15.08 144.96-36.32-3.543-75.32-13.86-106.44-32.913 39.61-4.608 71.74 1.101 110.84 0-13.47-30.471-20.38-43.986-51.95-73.769-10.55-8.976-11.86-24.796-2.89-35.389a25 25 0 0 1 17.07-8.769m-384.79-62.234c18.05.539 36.51 3.191 55.25 8.195 31.09 8.289 54.22 20.945 70.88 36.145 52.33-24.142 121.56-21.15 197.32 39.31l78.14 79.684c6.73 7.498 3.64 3.508 9.27 12.037-35.66-18.399-73.52-62.867-97.03-78.928-86.48-59.084-130.35-57.33-169.38-30.539 64.38 98.943-64.74 259.585-108.34 159.197-20.17-46.462 2.96-114.764 52.78-156.927-5.43-4.024-11.55-7.739-18.49-11.074-119.36-57.674-256.49 49.145-298.2 173.16-3.43 13.447-17.07 21.563-30.47 18.124-13.44-3.439-21.55-17.093-18.11-30.505v-.034c43.77-121.814 150.05-221.616 276.38-217.845"/></g></svg>