<svg width="505" height="1256" xmlns="http://www.w3.org/2000/svg" xmlns:xlink="http://www.w3.org/1999/xlink" xml:space="preserve" overflow="hidden"><defs><clipPath id="clip0"><rect x="1947" y="609" width="505" height="1256"/></clipPath></defs><g clip-path="url(#clip0)" transform="translate(-1947 -609)"><path d="M2357.05 877.8C2309.05 782.833 2247.35 695.752 2178.45 615.185 2173.99 610.042 2166.79 611.414 2163.71 617.242 2084.18 766.377 2003.62 918.255 1966.6 1084.53 1933.34 1234.35 1941.92 1395.83 2014.93 1533.31 2050.93 1601.19 2101.66 1659.82 2166.45 1700.96 2162.68 1756.5 2173.99 1812.72 2207.24 1858.66 2209.3 1861.75 2213.76 1862.78 2217.18 1861.4 2226.44 1857.63 2235.35 1853.52 2244.61 1849.75 2249.41 1847.69 2251.81 1840.83 2248.04 1836.38 2216.5 1800.38 2207.93 1755.47 2206.56 1709.87 2277.17 1692.04 2330.65 1633.07 2367.33 1572.05 2406.41 1506.91 2431.78 1434.23 2443.78 1359.15 2469.83 1193.9 2432.12 1025.91 2357.05 877.8Z" fill="#327137" fill-rule="evenodd" fill-opacity="1"/><path d="M2191.55 761.797C2191.55 761.797 2191.89 765.224 2192.9 772.077 2193.92 778.587 2195.28 788.524 2196.63 800.86 2197.99 813.195 2200.03 828.272 2201.72 845.405 2203.42 862.538 2205.45 882.069 2207.15 903.313 2208.84 924.558 2210.88 947.516 2212.23 972.187 2212.91 984.523 2213.93 996.858 2214.27 1009.88 2214.95 1022.56 2215.63 1035.92 2215.97 1049.28 2216.98 1076.01 2217.66 1103.77 2218 1131.86 2218 1145.91 2218 1159.96 2217.66 1174.35 2217.66 1181.55 2217.32 1188.74 2217.32 1195.6L2216.64 1217.19 2215.97 1238.43C2215.63 1245.63 2215.29 1252.48 2214.95 1259.67 2214.27 1273.72 2213.93 1287.77 2213.25 1301.48 2212.23 1329.23 2211.56 1356.65 2210.54 1383.03 2209.18 1436.14 2208.17 1485.83 2207.15 1528.32 2206.81 1538.94 2206.81 1549.22 2206.47 1558.81 2206.13 1568.41 2206.13 1577.66 2205.79 1586.22 2205.45 1603.36 2204.77 1618.43 2204.43 1631.11 2204.1 1643.45 2203.76 1653.38 2203.42 1659.9 2203.42 1663.32 2203.08 1665.72 2203.08 1667.78 2203.08 1669.49 2203.08 1670.52 2203.08 1670.52 2202.74 1673.6 2200.36 1676 2196.97 1676 2194.26 1676 2191.89 1673.6 2191.55 1670.86L2191.55 1670.52C2191.55 1670.52 2191.21 1667.09 2190.87 1660.58 2190.19 1654.07 2189.51 1644.13 2188.5 1631.8 2187.48 1619.46 2186.46 1604.39 2185.44 1586.91 2184.77 1578.34 2184.43 1569.09 2183.75 1559.5 2183.41 1549.9 2182.73 1539.62 2182.39 1529 2182.05 1518.38 2181.37 1507.07 2181.03 1495.76 2180.7 1484.11 2180.36 1472.46 2180.02 1460.13 2179.68 1447.79 2179.34 1435.46 2179.34 1422.44 2179.34 1409.76 2179.34 1396.39 2179 1383.03 2179 1369.67 2179 1355.96 2179 1342.25 2179 1328.55 2179.34 1314.5 2179.68 1300.45 2180.36 1272.35 2181.37 1243.91 2182.73 1215.81L2183.75 1194.91C2183.75 1187.72 2184.09 1180.86 2184.09 1173.67 2184.43 1159.62 2184.43 1145.57 2184.77 1131.86 2185.1 1104.11 2185.1 1076.7 2184.77 1050.31 2184.43 1023.93 2184.43 998.229 2183.75 973.901 2183.41 949.572 2182.73 926.614 2182.39 905.37 2181.71 819.706 2180.36 762.825 2180.36 762.825 2180.36 759.741 2182.73 757 2185.78 757 2188.83 757 2191.21 759.056 2191.55 761.797Z" fill="#70AD47" fill-rule="evenodd" fill-opacity="1"/></g></svg>