<svg xmlns="http://www.w3.org/2000/svg" width="2356" height="1159" fill="none"><path fill="#327137" fill-rule="evenodd" d="M2356 1158.55H.816V266.232q1.491-1.283 3.528-2.061-.217-1.334-2.447-1.56-.54-.04-1.08-.089v-4.129q.87-1.18 1.976-2.713 3.111-4.022 6.035-5.813-.226-1.334-2.466-1.565a53 53 0 0 1-4.244-.448q10.515-6.931 14.088-10.5a26.68 26.68 0 0 0 7.832-16.106q4.69 7.832 12.744 23.928 7.826 14.077 15.657 21.009-.891 2.239-2.913 1.565l-2.062-.901-.53-.236 6.175 12.99 7.605-15.427q1.792 6.04 4.021 8.053l5.587-12.966q.227-.447 3.584-14.314 2.225-8.49 5.144-13.63 1.343-3.583 2.013-4.922 1.344-2.235 5.139-2.456 3.13 3.804 6.935 10.225l3.67 6.844 6.637-15.731q-1.348-3.356-6.049-2.013-6.709 2.008-7.157 2.013 2.24-4.022 8.053-8.052a592 592 0 0 0 9.396-6.483q2.018-4.248 6.71-6.035-.217-1.56-2.452-1.787-2.919 0-4.258-.221 1.344-1.35 5.139-6.483c2.115-2.832 4.037-4.768 5.828-5.814q-.226-1.57-2.244-1.786-2.919 0-4.243-.232 10.947-7.6 13.866-10.499 6.925-6.936 8.053-16.101 4.695 7.605 12.744 23.923 7.61 13.856 15.658 21.013-.892 2.24-2.914 1.339-2.226-1.117-3.569-1.339 1.782 6.71 7.157 15.648l4.118 7.673 3.472-10.798q.444-1.566 3.136-17.888 2.022-10.726 4.691-17.209 1.349-4.475 2.018-6.261 1.344-2.683 5.139-2.909 3.256 4.917 7.942 14.873l1.903 4.363 4.036-8.058q3.029 5.03 7.21 12.855l1.681 3.237.491-1.561q.236-1.112 3.135-17.883 2.024-10.726 4.691-17.208 1.349-4.696 2.018-6.262 1.34-2.913 5.154-2.909 6.035 9.176 18.557 38.675.896-4.479 1.792-14.53.664-9.609 1.792-14.305 4.016 2.23 8.948 5.813 3.786-13.196 8.053-20.122 1.787-4.48 2.9-6.035 1.786-2.683 6.261-2.461l2.437 4.681 6.752-13.852q4.687 8.044 12.744 24.819 7.606 14.526 15.658 21.905l-.308.168 5.669 6.541q6.488-2.457 12.296-10.5 3.372-4.695 9.397-16.327 1.348-7.374 4.036-14.083 1.33-4.475 2.003-6.035 1.34-2.904 5.154-2.909 5.577 8.5 15.658 31.528l2.899 4.021a447 447 0 0 1 14.088-20.117q11.848-15.88 10.967 0 1.56-10.067 2.446-14.979 1.782-8.492 4.258-14.088 1.339-4.696 2.004-6.261 1.131-2.904 4.931-2.904 3.237 4.695 8.766 16.486l11.863 27.227.852-.574q1.561-4.238 6.488-6.251-.235-1.349-2.466-1.57a54 54 0 0 1-4.022-.443q.886-.901 4.918-6.488 3.13-4.026 6.035-5.813-.227-1.34-2.452-1.561a53 53 0 0 1-4.258-.448l8.993-6.709.616-3.569.014 3.107 4.47-3.338a26.5 26.5 0 0 0 7.827-16.091q4.695 7.821 12.758 23.918l12.171 16.279 1.681-10.018q2.018-10.726 4.705-17.214 1.325-4.478 2.004-6.035 1.349-2.904 5.153-2.904 2.562 3.805 6.204 11.063l6.93 14.979 7.23-7.721 1.748-1.252.087-.135q2.283-4.31 3.289-6.651.463-.895 6.05-17.883 3.564-10.73 8.053-17.218 2.23-4.696 3.347-6.262 2.022-2.904 7.378-2.9l2.004 2.746 2.033-1.637a37.7 37.7 0 0 0 9.618-20.788q5.587 9.84 15.436 30.849a144 144 0 0 0 9.454 16.038l.602.737 5.587-16.322c1.205-2.982 2.086-4.995 2.688-6.04q1.344-2.672 5.139-2.456 3.468 5.925 8.053 17.941l3.853 11.275 1.975-3.29q3.357-6.921 7.605-18.774-1.344-3.358-5.814-2.013-6.704 2.013-7.378 2.013 2.224-4.03 8.053-7.827a613 613 0 0 0 9.618-6.482q1.565-4.244 6.487-6.262-.226-1.338-2.466-1.565-2.682-.222-4.021-.443.887-.895 4.917-6.483 3.13-4.03 6.035-5.813-.226-1.339-2.451-1.565a53 53 0 0 1-4.258-.448q10.51-6.936 14.092-10.51a26.5 26.5 0 0 0 7.827-16.09q4.697 7.82 12.759 23.917 7.816 14.088 15.657 21.24-.9 2.235-2.913 1.339-2.23-1.122-3.584-1.344 1.796 6.488 7.172 15.653 6.251 10.5 8.038 14.979l-2.832-.771 5.072 12.176.881-3.357q2.023-11.849 3.136-17.883 1.791-10.731 4.695-17.213 1.344-4.696 2.014-6.262 1.127-2.904 5.153-2.909 4.691 6.936 13.64 27.28l.453-4.474q.438 5.144 2.225-1.56 2.022-8.502 2.466-9.84l4.412 9.955 1.637-1.238q6.936-6.936 8.053-16.096l2.182 3.853 3.631-13.019c2.071-7.152 4.398-12.888 6.931-17.208q1.783-4.48 2.899-6.04 1.575-2.904 6.05-2.683 5.129 7.152 10.278 19.005l1.792-5.587q.216 10.052 14.314 32.636a1144 1144 0 0 1 19.019-4.696q5.578-1.117 7.379-2.235l.896-2.24q.447-1.33 4.696-14.978 2.682-8.935 5.808-14.305 1.792-3.8 2.693-5.139 1.338-2.46 5.138-2.234 1.734 2.571 4.104 7.344l2.842 6.276 6.035-5.577q-.212-1.565-2.462-1.792a29 29 0 0 1-4.248-.221q10.731-7.384 14.093-10.505 6.714-6.93 7.826-16.1 4.701 7.604 12.759 23.922l12.551 16.616 8.679-16.163q1.792 21.678 19.916 36.883 1.998-5.365 10.283-11.848 2.682-15.2 5.601-21.91 1.324-4.685 1.999-6.26 1.127-2.9 5.158-2.9 6.026 9.383 16.554 34.422l1.888-3.097-2.341-.255q.906-.891 4.932-6.488l2.981-2.875 1.657-3.824-1.069-.675a53 53 0 0 1-4.017-.447l7.971-6.04 4.537-16.313q2.918-10.957 6.719-17.209 1.787-4.48 2.899-6.04 1.58-2.904 6.04-2.904c3.723 5.515 8.583 15.278 14.536 29.284q2.692 6.482 16.328 40.683c8.35 7.302 14.92 10.135 19.69 8.5l3.66-10.922-.75.183 1.03-1.012 1.14-3.453c1.24-3.87 2.01-6.552 2.3-8.048.15-.45 1.26-6.41 3.35-17.883 1.2-7.157 2.77-12.895 4.7-17.214q1.125-4.474 1.8-6.035c.88-1.936 2.6-2.906 5.14-2.909q2.79 4.132 6.54 11.569l1.8 3.872 7.99-6.054c4.47-4.623 7.08-9.989 7.82-16.096 3.15 5.064 7.4 13.038 12.76 23.923l13.35 17.67 9.47-7.166q6.69-6.71 7.83-15.87l5.53 9.778c2.13 3.981 4.53 8.695 7.21 14.14l12.24 16.188 9.9-14.285c-.85 14.397 1.53 22.482 7.16 24.255l2.01-5.144q.225-.444 4.47-17.883c1.79-7.302 3.88-13.113 6.26-17.435 1.19-3.13 2.09-5.218 2.69-6.261q1.785-2.905 6.48-3.126c4.7 5.808 12.12 18.914 22.28 39.315l9.92 20.499 5.17-3.483v-.004c1.04-2.826 3.21-4.838 6.49-6.035-.15-1.04-.98-1.636-2.47-1.787q-2.685 0-4.02-.222.885-.896 4.92-6.482c2.08-2.685 4.1-4.622 6.05-5.814-.16-1.043-.98-1.64-2.47-1.791-1.95 0-3.36-.074-4.24-.222 7.15-4.916 11.85-8.419 14.08-10.51 4.47-4.62 7.08-9.985 7.82-16.095 3.14 5.067 7.39 13.04 12.76 23.922 5.22 9.238 10.52 16.243 15.88 21.014-.75 1.49-1.71 1.936-2.91 1.339l-3.79-1.334 5.8 12.34 7.61 13.36 6.93-4.022c5.97-12.965 9.62-21.161 10.97-24.587 2.23-7.755 3.94-13.566 5.14-17.435q2.895-10.519 6.48-16.766c1.19-2.986 2.09-5 2.69-6.04q1.56-2.682 5.37-2.46c4.01 7.6 10.29 26.378 18.77 56.336 3.59-12.372 6.57-20.718 8.95-25.04q1.8-4.465 2.7-6.03c1.03-1.792 2.82-2.612 5.36-2.462l4.47 10.283.67-1.117-.23 2.456c2.25 5.514 4.7 12.89 7.38 22.131 3.89 1.044 9.03-1.042 15.44-6.256q8.505-6.93 16.77-19.005c.9 12.522 6.05 23.7 15.44 33.531l7.61-17.657c.89 7.9 2.98 15.128 6.25 21.688 3.59-12.522 6.57-20.944 8.95-25.266 1.19-2.98 2.09-4.992 2.69-6.035 1.04-1.785 2.83-2.604 5.36-2.456 1.5 2.905 3.19 6.967 5.09 12.185l3.47 10.504 6.22-4.137 2.45-2.374 1.76-5.674-4.21-.221c.89-.9 2.61-3.06 5.14-6.483l2.11-2.115 2.01-4.927-.77-.563q-2.67 0-4.02-.222l7.39-5.601 1.1-2.669c1.2-2.832 2.08-4.768 2.68-5.813 1.05-1.787 2.9-2.61 5.59-2.456l.06.125 5.09-10.191.02.005c3.13 5.214 7.38 13.188 12.74 23.922l8.58 11.502 1.02-2.567q1.8-4.244 2.7-5.814c1.04-1.933 2.83-2.825 5.36-2.678 3.13 5.812 6.63 15.051 10.51 27.718a92.3 92.3 0 0 0 6.05-22.8c1.04 14.459 7.67 26.828 19.9 37.11 1.94-4.772 6.64-13.266 14.09-25.483a75 75 0 0 1 6.05-12.075c1.04-2.238 1.86-3.802 2.45-4.691q1.125-2.457 2.91-3.352h.45c0-.6 1.12-.752 3.35-.453 3.44 5.664 8.58 18.482 15.43 38.454l13.18-13.8-4.22 1.06c1.49-2.687 4.17-5.296 8.05-7.826l1.6-1.108 2.65-4.036.67 1.748 4.49-3.087c1.33-2.832 3.57-4.845 6.7-6.04q-.24-1.564-2.46-1.782c-1.95 0-3.36-.077-4.24-.23q1.32-1.34 5.13-6.479 2.895-4.248 5.82-5.813c-.15-1.044-.97-1.64-2.47-1.792q-2.67 0-4.02-.221c7.31-5.067 11.93-8.569 13.87-10.505 4.62-4.62 7.3-9.987 8.05-16.1 3.13 5.07 7.38 13.043 12.76 23.922q7.59 13.857 15.66 21.018c-.6 1.484-1.58 1.93-2.92 1.34q-2.22-1.123-3.57-1.34c1.19 4.47 3.57 9.684 7.15 15.644l3.7 6.873 1.88-4.86c1.21-2.983 2.1-4.995 2.69-6.035 1.05-1.788 2.84-2.607 5.38-2.456 3.57 6.406 8.27 19.445 14.09 39.118l1.9 1.903 3.08-4.075 1.73-3.641c1.18-2.986 2.08-4.998 2.68-6.035l1.49-.684-.6-.433q-2.925-.136-5.82-.448c9.85-6.708 16.27-11.625 19.25-14.753 6.4-6.261 10.15-13.635 11.17-22.136 4.33 7.151 10.23 18.18 17.68 33.089l8.93 14.039 3.38-12.089c1.34-4.283 2.61-7.765 3.79-10.446q3.585-12.523 4.02-13.64l.46 3.805c1.34-2.53 3.35-3.723 6.04-3.579q4.695 8.718 11.4 30.632c1.79 5.51 5.9 19.667 12.31 42.47 7 11.328 15.05 12.597 24.16 3.805 4.41-5.89 8.84-11.761 13.3-17.613l3.04-3.921-.46-.154c-4.32 1.487-6.71 2.158-7.16 2.013 1.49-2.684 4.17-5.293 8.06-7.826 5.49-3.721 8.63-5.882 9.39-6.483h-.01c1.35-2.832 3.58-4.843 6.71-6.035-.15-1.046-.97-1.642-2.47-1.787a53 53 0 0 1-4.24-.448c.9-.899 2.61-3.059 5.14-6.482 1.94-2.688 3.88-4.55 5.83-5.587-.16-1.047-.98-1.644-2.47-1.792a53 53 0 0 1-4.03-.448c7.17-4.768 11.79-8.271 13.87-10.509 4.63-4.47 7.31-9.76 8.06-15.87 3.13 5.067 7.38 13.041 12.74 23.923l6.99 9.377.84-2.225c1.04-2.533 1.78-4.248 2.23-5.144q1.14-2.677 3.36-3.13l.45-.891v.674h2.02q4.23 8.043 10.29 27.492 1.56 5.032 4.35 14.593l3.97 13.717 1.96-1.483c7.01-7.297 11.1-15.726 12.31-25.262l1.8 3.203.44-.968c1.04-1.786 2.83-2.604 5.36-2.457 2.09 3.95 4.47 9.816 7.16 17.599l6.99 22.757.98 1.537 1.82 2.885 3.85-10.914c1.49-3.577 2.99-6.518 4.48-8.824q2.025-4.479 3.12-6.039c1.2-1.789 3.22-2.608 6.05-2.457 1.87 3.128 3.88 7.244 6.04 12.349l.44 1.161 3.81-2.562c1.48-3.128 3.64-5.213 6.46-6.257q-.21-1.343-2.22-1.565c-1.95-.144-3.36-.292-4.24-.443.88-.896 2.59-3.058 5.14-6.488 2.08-2.832 4.02-4.769 5.8-5.813q-.21-1.339-2.46-1.56a54 54 0 0 1-4.02-.448c7.01-4.624 11.63-8.127 13.87-10.509a27.7 27.7 0 0 0 8.05-16.092h.01c2.99 5.215 7.16 13.187 12.52 23.918q7.83 14.083 15.9 21.24-.915 2.235-2.91 1.339h-.02c-1.64-.748-2.9-1.196-3.79-1.344 1.19 4.319 3.64 9.537 7.36 15.653l6.39 11.853 2.35-6.266 2.45-5.144c1.21-2.982 2.1-4.994 2.69-6.034 1.04-1.787 2.84-2.611 5.37-2.457 2.84 5.218 6.79 15.798 11.86 31.74 4.91-3.725 10.36-9.387 16.33-16.987 6.4-8.349 11.03-14.236 13.86-17.662l12.42 46.945 3.84 7.398 2.45-7.326c3.56-8.021 7.23-8.79 11.04-2.307l4.2 7.995 10.11-7.547a26.47 26.47 0 0 0 7.83-16.096v.005l.59 1.04 4.94 8.843 1.21 2.341.15.288 1.39-3.13q1.575-2.673 5.37-2.456c2.17 4.093 4.79 10.799 7.89 20.117l4.64 14.82 2.46 3.29-1.32.607 4.89 17.054 12.97-17.435a32 32 0 0 1 3.36-7.157c1.19-2.986 2.09-4.998 2.69-6.035 1.04-1.791 2.83-2.61 5.36-2.456l.23.217v.226q5.82 10.957 14.31 40.91l1.35.896q1.35-3.8 6.93-11.848 5.145-7.374 6.03-11.849 5.835 12.518 11.19 29.062c.67 2.235 1.72 5.829 3.14 10.784l5.23 18.466.19.342 8.88-17.97c2.24.148 3.73.966 4.48 2.456q.915 1.57 1.8 5.592c1.33 0 2.67.522 4.01 1.565q3.135-8.939 5.37-12.965c1.2-2.832 2.08-4.768 2.68-5.814q1.575-2.904 5.37-2.682 2.58 5.028 5.49 12.912l3.43 10.379 10.55-7.865c4.47-4.623 7.08-9.989 7.82-16.096 3.14 5.061 7.39 13.036 12.76 23.918h-.01a134 134 0 0 0 3.98 6.607zm-33.17-877.758-.91-2.75 2.14 1.561zm-163.94-77.547-.12-.241.22.144zm-94.58-26.721-6.2-7.128v-.005q3.36-.882 5.82.674l2.54.665zM476.449 157.345l-1.497-3.159 1.989.698-.424 2.211zm28.932-16.64 2.847-.877-.395.727-1.792 1.566zM797.27 91.588q-9.387-1.56-4.706 1.792 4.706 3.357 4.706-1.792m887.09 3.188-2.9-3.41 4.06.472zM878.935 59.964l-.477-1.011.868.303zm224.985-4.272-2.66-5.654.08.01 3.7 1.304.76-.346.88.64-2.21 3.516z" clip-rule="evenodd"/></svg>