<svg xmlns="http://www.w3.org/2000/svg" xml:space="preserve" width="1802" height="986" overflow="hidden"><defs><clipPath id="a"><path d="M1113 627h1802v986H1113z"/></clipPath></defs><g clip-path="url(#a)" transform="translate(-1113 -627)"><path fill="#FFF" fill-rule="evenodd" d="M2028.57 629c116.33 0 216.14 52.923 258.78 128.347l7.71 18.601 46.76-3.527c155.11 0 280.84 94.085 280.84 210.145l-.33 3.276 9.83-.741c155.1 0 280.84 94.089 280.84 210.149 0 72.53-49.12 136.49-123.82 174.25l-22.04 8.95-5.01 37.24c-26.19 95.76-139.42 167.79-275.14 167.79-77.55 0-147.76-23.52-198.59-61.55l-4.41-4-1.75 2.42c-50.47 55.9-135.94 92.65-232.88 92.65-77.55 0-147.76-23.52-198.59-61.55l-15.36-13.93-33.93 20.95c-44.82 22.66-98.85 35.89-157.02 35.89-155.1 0-280.84-94.09-280.84-210.15 0-14.51 1.96-28.67 5.71-42.35l7.15-17.24-36.24-2.73c-127.97-19.6-224.24-104.33-224.24-205.88 0-116.057 125.74-210.142 280.84-210.142 14.54 0 28.83.826 42.77 2.421l30.92 5.333 5.34-12.854c42.63-75.424 142.44-128.347 258.77-128.347l28.14 1.858 7.02-16.932C1812.44 681.923 1912.25 629 2028.57 629"/></g></svg>