<svg xmlns="http://www.w3.org/2000/svg" width="3209.5" height="3519.7" version="1.0" viewBox="0 -0.4 3209.5 3519.7"><path fill="#1C1C1B" d="M1949.03 254.74c37.83-41.88 77.44-82.45 120.35-119.79 21.46-18.66 43.76-36.47 67.16-52.96 23.39-16.49 47.94-31.62 73.85-44.57 25.93-12.87 53.31-23.53 82.1-30.2 14.39-3.3 29.1-5.62 44-6.62 14.89-1 29.97-.74 44.93 1.01s29.78 5.01 44.14 9.64 28.25 10.66 41.44 17.83c13.2 7.17 25.67 15.5 37.44 24.61 5.89 4.55 11.57 9.33 17.09 14.26 1.39 1.22 2.75 2.47 4.11 3.73l2.04 1.88c.67.61 1.41 1.34 2.11 2.01l2.12 2.04c.71.68 1.43 1.36 2.03 2.06l3.78 4.17 3.78 4.17 3.57 4.1c2.36 2.74 4.77 5.44 7.06 8.23 2.3 2.78 4.64 5.53 6.9 8.34l6.76 8.44c8.89 11.33 17.45 22.87 25.76 34.57 8.25 11.73 16.26 23.61 24 35.65l5.72 9.07 2.86 4.54 2.79 4.57 5.58 9.15 5.45 9.22c14.53 24.6 28.09 49.69 40.94 75.13 12.87 25.42 24.91 51.22 36.32 77.28 45.58 104.28 80.04 212.95 105.7 323.32l4.72 20.72 4.52 20.76 4.28 20.8c1.41 6.94 2.73 13.89 4.09 20.84 5.34 27.8 10.19 55.69 14.57 83.63 4.42 27.94 8.24 55.96 11.68 84.01 3.47 28.05 6.52 56.14 9.11 84.26 2.54 28.13 4.89 56.27 6.64 84.44 1.79 28.17 3.23 56.36 4.31 84.55.99 28.2 1.71 56.41 2 84.62l.13 21.16.04 10.58-.04 10.58c-.05 7.06-.02 14.09-.12 21.18l-.29 21.28c-.05 1.78 0 3.54-.13 5.33l-.43 5.39c-.28 3.63-.61 7.08-.92 10.63-.66 7.04-1.34 14.09-2.12 21.12-1.55 14.07-3.33 28.11-5.44 42.11-4.18 28.01-9.52 55.85-16.03 83.44-6.52 27.59-14.29 54.9-23.49 81.76-9.18 26.86-19.75 53.3-32.02 78.99-12.29 25.67-26.16 50.67-42.12 74.4-15.96 23.71-33.95 46.22-54.4 66.53-20.44 20.28-43.45 38.33-69.06 52.35-12.8 7-26.23 12.96-40.17 17.61a221.3 221.3 0 0 1-43.02 9.75 215 215 0 0 1-44.23.89c-14.73-1.21-29.31-3.91-43.49-7.89s-27.96-9.22-41.21-15.46c-3.25-1.52-6.78-3.25-10.15-5.13-3.38-1.91-6.71-3.97-9.94-6.23-6.44-4.57-12.57-9.9-17.83-16.27-5.27-6.34-9.67-13.69-12.58-21.73-2.93-8.02-4.31-16.67-4.1-25.18.19-8.52 1.92-16.85 4.72-24.61 2.81-7.77 6.68-14.98 11.21-21.59 9.13-13.2 20.8-23.99 33.57-32.68 12.79-8.7 26.72-15.34 41.12-20.2 7.2-2.45 14.52-4.43 21.91-6.01 7.39-1.6 14.85-2.77 22.33-3.56 14.96-1.59 30.02-1.7 44.89-.49 29.78 2.42 58.8 9.81 86.22 20.5 27.44 10.72 53.36 24.66 77.7 40.66 12.18 8 23.93 16.56 35.37 25.49 11.4 8.96 22.47 18.31 33.2 28 5.34 4.86 10.63 9.78 15.81 14.81l3.89 3.77 3.73 3.7c2.46 2.5 4.99 4.87 7.51 7.25l3.79 3.59 3.85 3.7c2.57 2.46 5.13 4.94 7.67 7.43 2.55 2.48 5.1 4.98 7.62 7.49 2.54 2.5 5.06 5.01 7.57 7.55 20.09 20.21 39.6 41.03 58.46 62.43 37.72 42.81 72.88 87.99 104.84 135.43 63.93 94.81 114.96 198.86 148.8 308.55 16.93 54.81 29.66 110.95 37.91 167.73 8.24 56.78 12.09 114.19 11.4 171.52-1.42 114.63-20.41 229.15-58.49 337.27-9.51 27.02-20.29 53.61-32.34 79.62a851 851 0 0 1-19.05 38.55 775 775 0 0 1-21.15 37.48c-14.78 24.6-31.02 48.37-48.96 70.88-8.96 11.25-18.34 22.2-28.17 32.74-9.85 10.52-20.18 20.63-30.99 30.22-21.62 19.17-45.36 36.25-71.42 49.39-13.03 6.54-26.64 12.04-40.73 16.08-7.04 2.01-14.2 3.69-21.44 4.91-3.62.63-7.26 1.13-10.91 1.51-1.82.21-3.66.36-5.49.51l-5.36.33c-28.55 1.78-57.17.84-85.39-2.55a499 499 0 0 1-42.01-6.87c-13.88-2.87-27.63-6.26-41.2-10.21l.97-3.88c13.73 2.9 27.54 5.38 41.4 7.29 13.86 1.9 27.77 3.3 41.69 4.13 27.84 1.65 55.74.97 83.27-2.21l5.15-.6c1.67-.23 3.34-.45 5-.73 3.32-.53 6.63-1.17 9.92-1.9 6.58-1.44 13.08-3.3 19.47-5.47 12.79-4.34 25.12-10.08 36.97-16.7 23.7-13.31 45.29-30.4 65.03-49.36 9.87-9.5 19.27-19.51 28.24-29.92 8.98-10.4 17.54-21.17 25.71-32.26 8.17-11.08 15.93-22.48 23.34-34.11 7.43-11.62 14.48-23.48 21.19-35.54a743 743 0 0 0 19.12-36.74 821 821 0 0 0 17.24-37.69c10.86-25.42 20.46-51.38 29-77.68 8.52-26.31 15.82-53.01 22.12-79.94 6.29-26.93 11.46-54.12 15.55-81.47 8.27-54.69 12.18-110 12.03-165.25-.11-27.63-1.18-55.25-3.35-82.79-2.12-27.54-5.31-54.99-9.46-82.28a1133 1133 0 0 0-36.9-161.35 1161 1161 0 0 0-59.78-154.46c-5.89-12.5-12.02-24.9-18.37-37.19-6.33-12.29-12.87-24.49-19.63-36.56-13.51-24.15-27.9-47.82-43.04-71.02-30.27-46.41-63.75-90.78-99.84-132.99-18.05-21.1-36.76-41.66-56.06-61.67-2.4-2.51-4.82-5-7.26-7.49a854 854 0 0 0-7.31-7.43c-2.44-2.47-4.9-4.94-7.37-7.38l-3.7-3.68-3.81-3.74c-2.55-2.5-5.11-4.99-7.56-7.52l-3.72-3.78-3.65-3.62c-4.86-4.84-9.83-9.56-14.82-14.25a597 597 0 0 0-30.93-26.92c-10.62-8.56-21.51-16.75-32.75-24.38-22.41-15.33-46.12-28.63-70.95-38.87-24.8-10.26-50.77-17.44-77.1-20.14-13.15-1.36-26.37-1.61-39.43-.53-6.53.53-13.02 1.38-19.42 2.6-6.4 1.21-12.73 2.75-18.91 4.69-12.36 3.83-24.2 9.16-34.87 16.04-10.66 6.86-20.15 15.34-27.3 25.16-7.12 9.78-11.79 20.98-12.33 32.12-.28 5.56.45 11.07 2.2 16.32 1.74 5.25 4.51 10.25 8.11 14.83 3.57 4.6 8.04 8.73 12.97 12.43 2.48 1.84 5.1 3.55 7.81 5.18 2.74 1.62 5.48 3.07 8.58 4.59 12.09 6 24.61 11.06 37.46 14.94 25.67 7.8 52.73 10.76 79.38 7.95 13.32-1.38 26.52-4.12 39.36-8.15 12.85-4.02 25.35-9.28 37.37-15.57 24.06-12.57 46.07-29.25 65.89-48.26 19.86-19.02 37.52-40.45 53.29-63.21 15.79-22.77 29.69-46.92 41.96-71.9 24.56-49.99 42.76-103.13 56.05-157.41 1.68-6.78 3.24-13.6 4.77-20.42 1.48-6.83 2.94-13.67 4.28-20.53 2.72-13.72 5.11-27.5 7.26-41.33 2.15-13.82 3.99-27.7 5.59-41.6q1.2-10.425 2.19-20.88c.31-3.46.66-7.02.93-10.4l.43-5.13c.13-1.71.09-3.48.14-5.22l.36-20.94c.11-6.98.1-14.03.15-21.04l.06-10.53-.06-10.53-.17-21.06c-.42-28.08-1.33-56.16-2.7-84.2-1.42-28.05-3.39-56.06-5.79-84.03-2.48-27.96-5.43-55.88-8.91-83.73-6.9-55.7-15.97-111.09-26.86-166.07-10.92-54.97-23.68-109.54-38.33-163.53-1.78-6.76-3.73-13.48-5.58-20.22-1.83-6.75-3.8-13.46-5.72-20.18-1.9-6.73-3.9-13.42-5.9-20.12l-2.99-10.04-3.08-10.02c-8.17-26.72-16.86-53.27-25.98-79.66-18.23-52.77-38.36-104.83-60.69-155.87-11.14-25.53-22.92-50.76-35.38-75.62-12.49-24.84-25.49-49.41-39.45-73.38l-5.23-8.99-5.35-8.91-2.68-4.45-2.74-4.41-5.48-8.82c-7.41-11.69-14.96-23.27-22.79-34.64-7.86-11.34-15.95-22.5-24.31-33.42l-6.35-8.11c-2.12-2.7-4.31-5.33-6.46-8-2.14-2.68-4.37-5.28-6.56-7.9l-3.3-3.92-3.25-3.71-3.24-3.71c-.53-.65-1.09-1.18-1.65-1.72l-1.66-1.64c-.57-.55-1.07-1.08-1.69-1.66l-1.82-1.73c-1.21-1.16-2.42-2.31-3.66-3.42-4.91-4.52-9.94-8.88-15.13-13.02-10.37-8.29-21.29-15.76-32.72-22.24-22.82-13-47.83-21.73-73.79-25.26-12.97-1.79-26.15-2.36-39.36-1.77-13.21.57-26.44 2.34-39.55 5.03-26.25 5.37-51.98 14.49-76.77 25.98-24.84 11.43-48.78 25.24-71.95 40.37-23.16 15.16-45.53 31.73-67.29 49.14-43.53 34.87-84.47 73.24-124.56 112.6z"/><path fill="#1C1C1B" d="M888.79 2503.3c-2.99 2-5.96 4.02-8.73 6.26-1.43 1.07-2.74 2.26-4.1 3.39-1.29 1.2-2.64 2.35-3.86 3.61a75 75 0 0 0-6.95 7.8 62.4 62.4 0 0 0-5.67 8.58c-6.73 11.91-8.84 25.82-7.05 39.6 1.75 13.82 6.88 27.42 13.48 40.29 3.33 6.44 7.02 12.74 11.03 18.88 3.99 6.15 8.25 12.15 12.71 18.03 8.93 11.75 18.62 23.01 28.76 33.89s20.73 21.39 31.62 31.6c21.81 20.41 44.74 39.72 68.29 58.26 23.56 18.54 47.77 36.29 72.4 53.44 24.64 17.13 49.72 33.71 75.2 49.41 3.18 1.96 6.38 3.9 9.57 5.81l2.25 1.34.53.31.61.32 1.22.65 4.87 2.58c6.65 3.55 13.36 7.15 20.01 10.79 13.32 7.27 26.57 14.71 39.72 22.34 26.31 15.23 52.22 31.26 77.56 48.24 50.62 33.98 98.89 72.02 142.53 115.22 43.57 43.19 82.45 91.63 113.73 144.87a644 644 0 0 1 41.11 82.94c2.92 7.15 5.71 14.35 8.39 21.6l1.97 5.45.98 2.73.49 1.37.5 1.51.99 3.03c.32 1.02.6 2.05.89 3.08.62 2.04 1.09 4.16 1.6 6.26.91 4.25 1.7 8.56 2.08 13.01.26 2.2.32 4.47.42 6.71.01 2.27.04 4.53-.11 6.82-.44 9.13-2.52 18.46-6.29 27.14-3.75 8.69-9.26 16.57-15.71 23.18-6.48 6.62-13.9 11.95-21.64 16.22-7.78 4.23-15.9 7.43-24.14 9.75-8.24 2.34-16.6 3.84-24.96 4.64-16.73 1.59-33.51.52-49.82-3.02-16.29-3.54-32.16-9.54-46.76-18.22l-.58-.35-.61-.45c-12.79-9.36-23.93-20.22-33.89-31.74-9.95-11.54-18.77-23.77-26.8-36.35-16.02-25.2-29-51.78-40.13-78.94-11.09-27.19-20.31-55.02-27.75-83.38-3.71-14.19-6.96-28.52-9.64-43.04-1.34-7.26-2.53-14.57-3.53-21.96-.51-3.68-.95-7.45-1.34-10.99l-1.25-10.67c-3.24-28.85-5.2-57.57-7.81-85.7-2.64-28.12-6.05-55.7-12.54-82.24-3.17-13.29-7.19-26.28-11.89-39-1.17-3.18-2.46-6.32-3.69-9.48-1.35-3.11-2.59-6.27-4.02-9.35-1.41-3.09-2.78-6.19-4.3-9.23l-2.23-4.58-2.27-4.38c-1.45-3-3.16-5.67-4.8-8.42-.78-1.36-1.76-2.79-2.65-4.19-.91-1.4-1.79-2.82-2.73-4.21-1.93-2.76-3.75-5.56-5.78-8.27l-2.98-4.09-3.1-4.04c-8.28-10.76-17.35-21.11-26.85-31.21-18.98-20.23-39.74-39.39-60.68-58.86-20.94-19.49-42.22-39.23-62.22-61.07-2.5-2.73-4.96-5.52-7.42-8.3-2.42-2.85-4.89-5.62-7.24-8.55l-3.56-4.35-3.37-4.3-6.73-8.61c-2.27-2.85-4.44-5.78-6.61-8.7l-6.54-8.75c-2.21-2.9-4.27-5.9-6.4-8.86l-6.35-8.89c-16.74-23.85-32.3-48.51-46.77-73.76-28.94-50.53-53.36-103.53-73.61-157.96-20.23-54.45-36.28-110.34-48.62-166.93-12.36-56.59-21.11-113.87-26.81-171.37-5.71-57.5-8.39-115.22-8.55-172.88-.27-115.34 9.39-230.37 26.18-344.1 8.41-56.88 18.66-113.44 30.46-169.66 11.84-56.21 25.26-112.05 40.1-167.49a3386 3386 0 0 1 105.84-327.39c10.2-26.8 20.78-53.46 31.69-79.98 10.9-26.52 22.19-52.89 33.87-79.09 23.39-52.37 48.27-104.11 75.42-154.72 13.62-25.28 27.78-50.29 42.82-74.82 7.52-12.26 15.27-24.41 23.32-36.37 8.07-11.95 16.4-23.76 25.28-35.22 4.41-5.73 9.06-11.42 13.61-16.89 4.58-5.51 9.18-11.01 13.8-16.49 9.26-10.95 18.62-21.83 28.12-32.58 19.01-21.51 38.6-42.55 58.97-62.84 20.38-20.28 41.57-39.82 63.83-58.15 22.26-18.31 45.62-35.42 70.37-50.46 24.74-15 50.95-27.92 78.62-37.15 27.63-9.19 56.85-14.53 86.25-14.02 14.68.24 29.35 1.88 43.7 5.01 14.36 3.11 28.39 7.64 41.86 13.39 13.48 5.75 26.41 12.71 38.7 20.58 6.14 3.94 12.15 8.09 17.97 12.46 2.91 2.19 5.8 4.41 8.63 6.69 1.42 1.11 2.85 2.29 4.29 3.49 1.43 1.19 2.88 2.33 4.27 3.72 5.4 5.16 10.36 10.44 15.19 15.93 4.81 5.47 9.42 11.08 13.89 16.77 8.93 11.4 17.32 23.15 25.39 35.08 16.12 23.88 30.94 48.52 45.08 73.5 28.19 50.02 53.82 101.35 77.84 153.39 24.08 52.01 46.49 104.77 67.72 157.99 42.3 106.5 79.78 214.95 111.64 325.15 15.92 55.1 30.37 110.65 43.02 166.68 12.62 56.02 23.41 112.53 31.6 169.52 8.11 57 13.69 114.51 14.94 172.42.61 28.95.1 58-1.96 87.05-2.1 29.05-5.75 58.12-11.73 86.94-5.98 28.8-14.32 57.39-26.29 84.88-5.98 13.73-12.88 27.17-20.86 40.07-3.95 6.41-8.38 12.85-12.6 18.7-4.26 5.93-8.55 11.76-12.87 17.54-17.3 23.11-35 45.7-52.88 68.16-17.9 22.44-35.99 44.7-54.3 66.79-73.31 88.25-149.27 174.31-229.15 256.99-39.98 41.29-80.96 81.71-123.65 120.55-21.35 19.41-43.14 38.41-65.55 56.79-22.42 18.37-45.46 36.14-69.53 52.82-24.09 16.64-49.15 32.3-76.31 45.4-13.6 6.5-27.75 12.37-42.81 16.84-7.52 2.24-15.29 4.1-23.33 5.43-8.04 1.32-16.37 2.08-24.97 1.92-8.59-.16-17.47-1.26-26.25-3.72-8.78-2.43-17.42-6.32-25.17-11.47a88.4 88.4 0 0 1-10.92-8.54l-2.48-2.36c-.8-.81-1.61-1.61-2.38-2.44-.75-.82-1.57-1.68-2.26-2.48l-2.06-2.39c-5.47-6.4-10.4-13.63-14.53-21.5-2.01-3.99-3.86-8.1-5.37-12.41-1.49-4.31-2.75-8.73-3.61-13.27-.85-4.53-1.41-9.12-1.59-13.72-.16-4.59-.01-9.17.45-13.67.5-4.49 1.25-8.9 2.28-13.19 1.06-4.27 2.28-8.46 3.76-12.48 2.93-8.07 6.59-15.6 10.68-22.67 8.22-14.13 18.03-26.49 28.44-37.82 10.43-11.33 21.53-21.64 32.97-31.31 22.92-19.29 47.16-36.15 71.97-51.74 24.83-15.56 50.26-29.83 76.07-43.19 25.82-13.34 52.01-25.8 78.48-37.56s53.24-22.77 80.24-33.16c27.01-10.38 54.26-20.12 81.82-29.1 27.55-8.99 55.38-17.27 83.69-24.46 28.33-7.11 56.78-13.11 85.5-18.06 28.7-4.94 57.6-8.83 86.67-11.49 29.07-2.69 58.31-4.09 87.64-4.02 29.33.12 58.76 1.69 88.11 5.35 29.34 3.61 58.6 9.32 87.32 17.7 14.35 4.23 28.56 9.15 42.52 14.82 13.94 5.73 27.63 12.23 40.93 19.57 13.27 7.39 26.12 15.65 38.39 24.77l4.55 3.5c1.52 1.17 3.05 2.34 4.46 3.49 2.89 2.31 5.76 4.65 8.61 7.01 5.69 4.74 11.3 9.57 16.82 14.49 44.15 39.47 82.31 85.35 113.86 135.06 31.59 49.74 56.68 103.22 76.11 158.38 19.4 55.21 33.21 112.12 42.39 169.58 9.19 57.48 13.65 115.56 14.17 173.57.48 58.02-2.95 116.01-10.29 173.48-7.33 57.48-18.41 114.48-33.6 170.44-7.63 27.97-16.29 55.68-26.13 83s-20.84 54.26-33.26 80.6c-12.41 26.34-26.24 52.1-41.9 76.86-15.66 24.74-33.14 48.52-53.15 70.37-10.02 10.9-20.68 21.32-32.11 30.96s-23.65 18.51-36.71 26.18c-13.05 7.68-26.99 14.15-41.64 18.81-7.32 2.33-14.81 4.22-22.42 5.58-.97.19-1.87.33-2.77.47l-2.72.44-5.44.88c-3.62.61-7.27 1.01-10.91 1.53-29.12 3.74-58.54 4.81-87.76 3.39-29.22-1.45-58.24-5.34-86.77-11.17-28.54-5.85-56.56-13.75-84.01-23.09-27.45-9.39-54.28-20.34-80.54-32.43-52.47-24.31-102.54-53.22-150.52-84.98-47.99-31.79-93.9-66.48-138.18-103-88.51-73.17-170.51-153.63-248.19-237.74-38.83-42.09-76.57-85.14-113.46-128.87-18.45-21.86-36.71-43.88-54.9-65.93l-27.33-33.02c-4.58-5.48-9.17-10.94-13.83-16.33-4.68-5.35-9.37-10.77-14.41-15.56l2.69-2.96c5.42 4.95 10.21 10.26 15.05 15.56 4.81 5.32 9.53 10.7 14.23 16.09 9.4 10.79 18.69 21.65 28.01 32.49 18.62 21.69 37.28 43.33 56.13 64.79 37.7 42.93 76.09 85.22 115.53 126.48 78.87 82.5 161.78 161.23 250.64 232.49 44.44 35.58 90.43 69.19 138.19 99.92 47.76 30.69 97.4 58.42 149.02 81.48 25.82 11.48 52.11 21.83 78.88 30.61 26.77 8.74 53.98 16.03 81.52 21.32 27.54 5.28 55.4 8.62 83.3 9.69 27.89 1.03 55.82-.31 83.36-4.17 3.43-.53 6.89-.95 10.31-1.57l5.14-.89 2.57-.44c.86-.15 1.72-.29 2.5-.46 6.44-1.27 12.81-2.99 19.07-5.1 12.52-4.23 24.59-10.06 36.05-17.07 11.47-7 22.33-15.17 32.62-24.11 10.28-8.95 19.97-18.7 29.13-28.98 18.3-20.6 34.49-43.31 49.03-67.09 14.53-23.8 27.43-48.7 39.04-74.23 23.19-51.1 41.21-104.67 55.31-159.22 14.11-54.56 24.24-110.2 30.7-166.22 6.43-56.03 9.27-112.46 8.21-168.78-1.07-56.31-6.02-112.5-15.31-167.87-9.32-55.35-23.07-109.89-42.03-162.42-18.96-52.5-43.1-103.03-73.17-149.63-29.97-46.64-65.91-89.24-107.2-125.81a647 647 0 0 0-15.72-13.43c-2.66-2.18-5.34-4.36-8.04-6.49-1.36-1.1-2.67-2.09-3.99-3.1l-3.96-3.03c-10.7-7.9-21.96-15.1-33.67-21.59-11.75-6.44-23.93-12.2-36.44-17.3-12.54-5.05-25.39-9.46-38.46-13.29-26.18-7.59-53.21-12.85-80.61-16.17-27.4-3.37-55.16-4.81-82.99-4.88-55.69-.01-111.65 5.52-166.91 15.07a1117 1117 0 0 0-82.25 17.44c-27.1 6.88-54.11 14.9-80.9 23.64a1715 1715 0 0 0-158.09 60.49c-25.81 11.38-51.3 23.41-76.31 36.25-25 12.84-49.54 26.44-73.22 41.14-23.65 14.71-46.51 30.51-67.42 47.95-10.43 8.73-20.34 17.89-29.32 27.55-8.97 9.65-17.01 19.84-23.21 30.41-6.19 10.55-10.46 21.48-11.6 31.92-1.18 10.45.7 20.37 5.58 29.99a76.3 76.3 0 0 0 9.38 13.98l1.42 1.68c.47.56.9.99 1.34 1.49.44.48.91.93 1.35 1.4l1.39 1.34c1.88 1.74 3.85 3.3 5.92 4.69 4.14 2.78 8.67 4.89 13.65 6.3 4.97 1.43 10.38 2.19 16.08 2.32 11.41.28 23.8-1.9 36.15-5.49 12.38-3.59 24.77-8.6 36.98-14.36 24.44-11.59 48.15-26.11 71.17-41.81 23.03-15.74 45.41-32.77 67.32-50.49 21.9-17.73 43.33-36.19 64.41-55.1 42.13-37.85 82.86-77.5 122.66-118.1 39.79-40.62 78.65-82.24 116.78-124.55 38.13-42.3 75.55-85.28 112.24-128.87 18.35-21.78 36.54-43.7 54.49-65.8 17.93-22.09 35.69-44.36 52.88-66.85 4.29-5.62 8.54-11.25 12.68-16.89 4.2-5.71 7.94-11.01 11.56-16.71 7.19-11.33 13.54-23.31 19.12-35.71 11.17-24.83 19.3-51.3 25.33-78.36 6.02-27.09 9.9-54.82 12.32-82.75 2.4-27.94 3.37-56.1 3.22-84.32-.32-56.44-4.88-113.03-11.99-169.33-7.12-56.32-16.84-112.39-28.4-168.12-11.57-55.73-25.02-111.11-39.94-166.11a3291 3291 0 0 0-49.16-163.8c-8.89-27.09-18.12-54.08-27.68-80.95-9.58-26.86-19.49-53.61-29.73-80.22-20.48-53.24-42.4-105.93-65.85-157.9-11.77-25.97-23.94-51.75-36.62-77.27-12.67-25.52-25.85-50.79-39.77-75.62-13.92-24.82-28.49-49.27-44.26-72.84-7.88-11.78-16.09-23.33-24.77-34.45-4.34-5.55-8.8-11-13.42-16.27-4.6-5.26-9.44-10.4-14.36-15.13-1.13-1.15-2.49-2.23-3.8-3.32s-2.63-2.19-4.02-3.28c-2.73-2.21-5.51-4.34-8.31-6.45-5.6-4.21-11.36-8.2-17.25-11.98-11.77-7.55-24.1-14.19-36.92-19.66-12.81-5.48-26.1-9.76-39.69-12.69-13.58-2.95-27.45-4.49-41.36-4.71-27.83-.48-55.66 4.65-82.2 13.54-26.58 8.91-51.94 21.51-76 36.22-24.08 14.73-46.88 31.61-68.66 49.72-21.79 18.12-42.56 37.52-62.56 57.69-20.01 20.17-39.23 41.16-57.91 62.63-9.34 10.74-18.55 21.6-27.64 32.57a2431 2431 0 0 0-13.56 16.52c-4.53 5.56-8.88 10.98-13.13 16.62-8.52 11.21-16.58 22.85-24.39 34.67-7.8 11.82-15.32 23.86-22.63 36.03-14.64 24.33-28.33 49.28-41.55 74.47-26.36 50.44-50.47 102.11-72.98 154.45-22.55 52.33-43.42 105.39-62.94 158.93-38.97 107.11-72.5 216.18-100.36 326.61-13.93 55.22-26.42 110.78-37.35 166.62-10.97 55.84-20.33 111.97-27.98 168.3-7.67 56.33-13.5 112.88-17.39 169.52s-5.65 113.39-5.09 170.07c.59 56.67 3.58 113.28 9.45 169.54 5.88 56.25 14.63 112.15 26.8 167.24 12.16 55.08 27.8 109.35 47.42 162.08 19.59 52.73 43.19 103.92 71.04 152.64 13.92 24.36 28.88 48.12 44.96 71.09l6.1 8.56c2.05 2.84 4.02 5.74 6.15 8.53l6.28 8.43c2.09 2.81 4.17 5.63 6.35 8.37l6.46 8.29 3.23 4.15 3.22 3.95c2.11 2.65 4.4 5.22 6.59 7.83 2.27 2.57 4.53 5.15 6.85 7.7 18.57 20.39 39.17 39.67 60.02 59.16 20.86 19.52 42.12 39.2 62.22 60.71 10.05 10.75 19.83 21.94 28.96 33.86l3.42 4.48 3.32 4.58c2.25 3.02 4.32 6.21 6.47 9.32 1.06 1.57 2.06 3.19 3.1 4.79 1.02 1.62 2.06 3.15 3.06 4.88l3.03 5.09c.51.85 1.01 1.7 1.43 2.56l1.32 2.57 2.64 5.15 2.44 5.07c1.66 3.36 3.17 6.8 4.71 10.22 1.56 3.41 2.93 6.91 4.4 10.37 1.36 3.5 2.77 6.98 4.05 10.51 5.15 14.1 9.53 28.5 12.93 43.03 6.96 29.08 10.4 58.43 12.98 87.2 2.54 28.8 4.36 57.15 7.38 85.13l1.18 10.63c.37 3.56.73 6.9 1.19 10.3.87 6.78 1.94 13.59 3.15 20.39 2.43 13.6 5.42 27.19 8.86 40.68 6.9 26.97 15.54 53.59 25.89 79.39 10.36 25.78 22.49 50.83 36.99 74 7.26 11.56 15.14 22.63 23.77 32.81 8.64 10.16 18.08 19.41 28.31 27.02l-1.2-.79c22.63 13.68 50.7 19.87 77.38 17.54 13.3-1.18 26.33-4.56 37.37-10.46 5.49-2.96 10.47-6.52 14.6-10.66 4.11-4.16 7.43-8.83 9.72-13.99 4.66-10.27 5.17-22.58 2.46-35.14-.37-1.57-.69-3.14-1.16-4.72-.22-.79-.42-1.58-.66-2.36l-.75-2.36-.37-1.18-.45-1.3-.91-2.61-1.83-5.22c-2.49-6.94-5.08-13.84-7.81-20.69-10.9-27.4-23.81-54.01-38.5-79.62-29.35-51.27-66.17-98.24-107.84-140.53-41.68-42.35-88.22-80-137.37-113.99-24.59-17-49.83-33.13-75.56-48.52-12.86-7.71-25.84-15.24-38.91-22.63-6.54-3.71-13.07-7.35-19.68-11.02l-5.08-2.8-1.27-.7-.64-.35-.69-.42-2.6-1.59c-3.26-2.01-6.49-4.04-9.7-6.07-25.71-16.33-50.8-33.41-75.5-51.09-24.68-17.7-48.9-36.05-72.53-55.2-23.61-19.16-46.63-39.12-68.56-60.36-10.96-10.62-21.64-21.56-31.9-32.94s-20.11-23.19-29.23-35.65c-4.57-6.22-8.94-12.62-13.05-19.21-4.12-6.58-7.96-13.38-11.44-20.42-3.45-7.04-6.56-14.32-9.01-21.91-1.24-3.79-2.32-7.65-3.19-11.58s-1.58-7.92-1.98-11.98c-.84-8.1-.7-16.44.89-24.61.78-4.08 1.89-8.11 3.34-12.01 1.47-3.9 3.27-7.66 5.34-11.24 2.06-3.59 4.42-6.98 7.01-10.15 2.57-3.18 5.34-6.18 8.28-8.93 1.44-1.42 2.99-2.7 4.49-4.03 1.56-1.25 3.09-2.56 4.7-3.73 3.16-2.44 6.48-4.61 9.81-6.73z"/><path fill="#1C1C1B" d="M230.84 1635.14c11.11-3.59 23.16-4.81 35.11-3.68 11.96 1.16 23.7 4.61 34.76 9.44 5.52 2.44 10.9 5.19 16.12 8.21 5.19 3.05 10.24 6.33 15.17 9.77 9.79 6.96 19.04 14.62 27.83 22.71 17.56 16.21 33.4 34.01 48.25 52.44 7.46 9.2 14.59 18.62 21.56 28.15 6.95 9.53 13.79 19.14 20.35 28.91 6.59 9.75 13.05 19.58 19.39 29.46 6.34 9.89 12.48 19.88 18.59 29.89 12.25 19.99 23.92 40.28 35.48 60.6 5.8 10.15 11.44 20.37 17.06 30.6l16.78 30.7c11.06 20.52 21.93 41.11 32.84 61.66l32.35 61.74c10.68 20.61 21.51 41.11 32.3 61.6 10.75 20.52 21.76 40.86 32.72 61.21 5.51 10.16 11.1 20.26 16.71 30.35 5.58 10.11 11.23 20.16 16.97 30.16 22.88 40.02 46.78 79.37 73 117 26.28 37.54 54.91 73.5 89.18 104.08l-6.16 8.18c-19.98-12.79-38.34-28.03-55.5-44.37-17.18-16.35-33.11-33.91-48.25-52.04-30.2-36.36-57.1-75.13-82.31-114.71-6.28-9.91-12.48-19.87-18.58-29.88-6.08-10.02-12.04-20.1-17.96-30.2-11.87-20.18-23.25-40.61-34.55-61.04-11.27-20.45-22.2-41.07-33.14-61.64-10.81-20.64-21.53-41.31-32.22-61.96l-31.77-62.02-15.85-30.96-15.97-30.86c-10.64-20.56-21.5-40.97-32.45-61.29-5.49-10.15-11.1-20.23-16.72-30.28a1424 1424 0 0 0-17.17-29.96c-5.87-9.89-11.73-19.77-17.82-29.49a1008 1008 0 0 0-18.72-28.82c-6.39-9.49-13.06-18.76-19.9-27.87a429 429 0 0 0-21.54-26.44c-7.47-8.55-15.43-16.59-23.79-24.16-4.21-3.74-8.54-7.35-13.03-10.75-4.51-3.34-9.14-6.54-13.94-9.46-4.81-2.91-9.82-5.44-14.97-7.69-5.16-2.22-10.5-4.11-16-5.42-11.01-2.78-22.63-3.41-34.21-1.87M0 1857.86c9.74-6.44 21.01-10.86 32.82-12.99 11.83-2.1 24.06-1.94 36.01-.27 5.97.87 11.89 2.06 17.73 3.56 5.82 1.54 11.57 3.34 17.24 5.32 11.3 4.06 22.27 8.95 32.91 14.37 21.28 10.88 41.32 23.75 60.59 37.49 9.66 6.85 19.07 14 28.34 21.29 9.27 7.3 18.43 14.71 27.39 22.35a1470 1470 0 0 1 26.62 23.14c8.77 7.81 17.38 15.78 25.96 23.76 17.19 15.95 33.9 32.33 50.51 48.78 8.32 8.21 16.51 16.53 24.69 24.86l24.44 25.04c16.19 16.77 32.22 33.66 48.27 50.5l47.82 50.71c15.85 16.96 31.81 33.77 47.74 50.58 15.89 16.85 31.99 33.46 48.04 50.09 8.05 8.29 16.16 16.51 24.29 24.7 8.1 8.22 16.26 16.37 24.49 24.44 32.85 32.34 66.49 63.75 101.9 92.87 35.44 29.01 72.72 55.86 113.93 75.97l-4.08 10.44c-22.7-6.98-44.51-16.74-65.43-27.88-20.95-11.15-41.02-23.79-60.48-37.19-38.87-26.93-75.2-57.04-110.13-88.39-8.72-7.86-17.36-15.79-25.93-23.78-8.55-8.02-17-16.13-25.42-24.26-16.86-16.25-33.32-32.86-49.7-49.5-16.36-16.67-32.43-33.58-48.51-50.45-15.97-16.97-31.85-33.99-47.7-51.01l-47.3-51.18-23.61-25.55-23.69-25.42c-15.79-16.93-31.74-33.66-47.77-50.28-8.02-8.3-16.14-16.49-24.27-24.66a1479 1479 0 0 0-24.61-24.23c-8.31-7.94-16.63-15.87-25.11-23.6s-17.09-15.29-25.8-22.71c-8.72-7.41-17.63-14.55-26.69-21.47a431 431 0 0 0-27.87-19.65c-9.5-6.22-19.34-11.82-29.44-16.85-5.07-2.47-10.21-4.77-15.45-6.84-5.25-2-10.57-3.84-15.98-5.34-5.42-1.5-10.93-2.59-16.5-3.37-5.57-.75-11.22-1.12-16.87-.9-11.3.36-22.65 2.9-33.39 7.51"/></svg>